<svg width="146" height="139" viewBox="0 0 146 139" fill="none" xmlns="http://www.w3.org/2000/svg">
<rect width="146" height="139" fill="white"/>
<path d="M35.5 108H41M49.5 108H138.5M28 108H7M13 119H37M44 119H68.5M73.5 119H82M87 119H97.5M105 119H137.5M26 83.5H9L14.5 99H116.5L135.5 83.5H125.25M26 83.5V74.5H33M26 83.5H99.5M99.5 83.5V74.5H91M99.5 83.5H111.5M111.5 83.5V74.5H125.25M111.5 83.5H125.25M125.25 74.5H139M125.25 74.5V83.5M33 74.5V65.5M33 74.5H55.5M33 65.5H24M33 65.5H44M55.5 74.5V65.5H62M55.5 74.5H91M91 74.5V65.5H84.5M62 65.5V56.5H73.25M62 65.5H84.5M84.5 65.5V56.5H73.25M73.25 56.5V43M73.25 33.5V20M73.25 33.5H84.5M73.25 33.5H62M73.25 33.5V43M73.25 43H66M73.25 43H80" stroke="black" stroke-width="3"/>
</svg>
