<svg width="134" height="101" viewBox="0 0 134 101" fill="none" xmlns="http://www.w3.org/2000/svg">
<path d="M29.5 88H35M43.5 88H132.5M22 88H1M7 99H31M38 99H62.5M67.5 99H76M81 99H91.5M99 99H131.5M20 63.5H3L8.5 79H110.5L129.5 63.5H119.25M20 63.5V54.5H27M20 63.5H93.5M93.5 63.5V54.5H85M93.5 63.5H105.5M105.5 63.5V54.5H119.25M105.5 63.5H119.25M119.25 54.5H133M119.25 54.5V63.5M27 54.5V45.5M27 54.5H49.5M27 45.5H18M27 45.5H38M49.5 54.5V45.5H56M49.5 54.5H85M85 54.5V45.5H78.5M56 45.5V36.5H67.25M56 45.5H78.5M78.5 45.5V36.5H67.25M67.25 36.5V23M67.25 13.5V0M67.25 13.5H78.5M67.25 13.5H56M67.25 13.5V23M67.25 23H60M67.25 23H74" stroke="black" stroke-width="3"/>
</svg>
